<?xml version="1.0" encoding="UTF-8"?>
<svg width="137px" height="39px" viewBox="0 0 137 39" version="1.1" xmlns="http://www.w3.org/2000/svg" xmlns:xlink="http://www.w3.org/1999/xlink">
    <!-- Generator: Sketch 61.2 (89653) - https://sketch.com -->
    <title>Group 59</title>
    <desc>Created with Sketch.</desc>
    <g id="Page-1" stroke="none" stroke-width="1" fill="none" fill-rule="evenodd">
        <g id="Group-59" transform="translate(0.459000, 0.281000)" fill="#393939" fill-rule="nonzero">
            <path d="M11.024,28.355 C14.2393333,28.355 16.7921667,27.6483333 18.6825,26.235 C20.5728333,24.8216667 21.518,22.8606667 21.518,20.352 C21.4826667,17.9846667 20.5286667,16.059 18.656,14.575 C17.596,13.7623333 15.4406667,12.7023333 12.19,11.395 C11.0946667,10.971 10.3173333,10.6618333 9.858,10.4675 C9.39866667,10.2731667 8.81566667,9.9905 8.109,9.6195 C7.40233333,9.2485 6.90766667,8.89516667 6.625,8.5595 C6.34233333,8.22383333 6.201,7.87933333 6.201,7.526 C6.201,6.784 6.61616667,6.20983333 7.4465,5.8035 C8.27683333,5.39716667 9.381,5.194 10.759,5.194 C12.985,5.194 15.0696667,6.00666667 17.013,7.632 L21.094,4.293 C18.55,1.431 15.1756667,0 10.971,0 C7.96766667,0 5.47666667,0.6625 3.498,1.9875 C1.51933333,3.3125 0.53,5.12333333 0.53,7.42 C0.53,8.374 0.689,9.23083333 1.007,9.9905 C1.325,10.7501667 1.68716667,11.3773333 2.0935,11.872 C2.49983333,12.3666667 3.1535,12.8878333 4.0545,13.4355 C4.9555,13.9831667 5.724,14.4071667 6.36,14.7075 C6.996,15.0078333 7.96766667,15.4406667 9.275,16.006 C9.381,16.0413333 9.50466667,16.0855 9.646,16.1385 C9.78733333,16.1915 9.90216667,16.2356667 9.9905,16.271 C10.0788333,16.3063333 10.1936667,16.3593333 10.335,16.43 C11.6423333,16.96 12.6316667,17.384 13.303,17.702 C13.9743333,18.02 14.5661667,18.4175 15.0785,18.8945 C15.5908333,19.3715 15.847,19.875 15.847,20.405 C15.847,21.3236667 15.423,22.0126667 14.575,22.472 C13.727,22.9313333 12.6493333,23.161 11.342,23.161 C8.65666667,23.161 6.201,22.0833333 3.975,19.928 L0,23.532 C1.166,25.016 2.72066667,26.1908333 4.664,27.0565 C6.60733333,27.9221667 8.72733333,28.355 11.024,28.355 Z" id="s"></path>
            <path d="M34.9401759,28.355 C38.0495092,28.355 40.5581759,27.4363333 42.4661759,25.599 L42.4661759,25.599 L42.4661759,27.719 L48.4021759,27.719 L48.4021759,10.176 C48.4021759,3.392 44.8158425,0 37.6431759,0 C33.6151759,0 29.9581759,1.04233333 26.6721759,3.127 L26.6721759,3.127 L28.5271759,8.109 C31.2831759,6.27166667 34.1451759,5.353 37.1131759,5.353 C40.6818425,5.353 42.4661759,6.97833333 42.4661759,10.229 L42.4661759,10.229 L42.4661759,11.819 C40.5581759,10.865 38.3145092,10.388 35.7351759,10.388 C32.7671759,10.388 30.2231759,11.1476667 28.1031759,12.667 C25.9831759,14.1863333 24.9231759,16.4123333 24.9231759,19.345 C24.9231759,22.2423333 25.8506759,24.4683333 27.7056759,26.023 C29.5606759,27.5776667 31.9721759,28.355 34.9401759,28.355 Z M36.0531759,23.002 C34.3925092,23.002 33.1028425,22.6663333 32.1841759,21.995 C31.2655092,21.3236667 30.8061759,20.4403333 30.8061759,19.345 C30.8061759,18.1083333 31.3626759,17.172 32.4756759,16.536 C33.5886759,15.9 34.9931759,15.582 36.6891759,15.582 C38.9151759,15.582 40.8408425,15.9883333 42.4661759,16.801 L42.4661759,16.801 L42.4661759,20.299 C40.7348425,22.101 38.5971759,23.002 36.0531759,23.002 Z" id="a"></path>
            <path d="M67.1328417,27.719 L77.6798417,0.636 L71.2138417,0.636 L65.0128417,17.808 C64.6595083,18.7973333 64.3945083,19.769 64.2178417,20.723 C64.0765083,19.981 63.8115083,19.0093333 63.4228417,17.808 L63.4228417,17.808 L57.1688417,0.636 L50.6498417,0.636 L61.1968417,27.719 L67.1328417,27.719 Z" id="v"></path>
            <path d="M96.7917202,27.719 L107.33872,0.636 L100.87272,0.636 L94.6717202,17.808 C94.3183868,18.7973333 94.0533868,19.769 93.8767202,20.723 C93.7353868,19.981 93.4703868,19.0093333 93.0817202,17.808 L93.0817202,17.808 L86.8277202,0.636 L80.3087202,0.636 L90.8557202,27.719 L96.7917202,27.719 Z" id="v"></path>
            <path d="M121.732825,38.001 L135.936825,0.636 L129.682825,0.636 L123.481825,17.172 C123.411158,17.3486667 123.322825,17.6048333 123.216825,17.9405 C123.110825,18.2761667 123.004825,18.5941667 122.898825,18.8945 C122.792825,19.1948333 122.704492,19.4686667 122.633825,19.716 C122.386492,18.7266667 122.121492,17.8786667 121.838825,17.172 L121.838825,17.172 L115.637825,0.636 L109.436825,0.636 L119.559825,27.242 L115.425825,38.001 L121.732825,38.001 Z" id="y"></path>
        </g>
    </g>
</svg>